<?xml version="1.0" encoding="UTF-8" standalone="no"?>
<svg
   width="1200"
   height="630"
   viewBox="0 0 1200 630"
   version="1.1"
   xmlns="http://www.w3.org/2000/svg"
   xmlns:svg="http://www.w3.org/2000/svg">
  <!-- Background -->
  <rect width="1200" height="630" fill="#687a86"/>

  <!-- Gradient overlay -->
  <defs>
    <linearGradient id="bgGradient" x1="0%" y1="0%" x2="100%" y2="100%">
      <stop offset="0%" style="stop-color:#687a86;stop-opacity:1" />
      <stop offset="50%" style="stop-color:#8d9ca4;stop-opacity:1" />
      <stop offset="100%" style="stop-color:#687a86;stop-opacity:1" />
    </linearGradient>
    <radialGradient id="accentGlow1" cx="20%" cy="50%">
      <stop offset="0%" style="stop-color:#2a9d8f;stop-opacity:0.1" />
      <stop offset="100%" style="stop-color:#2a9d8f;stop-opacity:0" />
    </radialGradient>
    <radialGradient id="accentGlow2" cx="80%" cy="80%">
      <stop offset="0%" style="stop-color:#d4766a;stop-opacity:0.1" />
      <stop offset="100%" style="stop-color:#d4766a;stop-opacity:0" />
    </radialGradient>
  </defs>

  <rect width="1200" height="630" fill="url(#bgGradient)"/>
  <rect width="1200" height="630" fill="url(#accentGlow1)"/>
  <rect width="1200" height="630" fill="url(#accentGlow2)"/>

  <!-- Logo -->
  <g transform="translate(350, 150) scale(0.6)">
    <path
       style="fill:none;stroke:#e5dfd8;stroke-width:23;stroke-linecap:round;stroke-linejoin:round;"
       d="M 138.17273,362.86364 C 78.417405,351.96289 61.003177,302.56077 59.309091,295.39091 35.373126,194.08706 71.883181,137.32769 117.38182,99.972727 c 36.1467,-29.676902 149.12463,-58.532762 165.07273,16.945453 6.99911,33.12496 -5.491,75.43811 -28.13177,102.75091 -16.02169,19.32783 -51.71702,30.05121 -71.43324,29.70284 -0.14119,-18.96153 -18.45114,-25.61343 -28.02988,-25.50187 -8.55544,0.0996 -35.34569,6.37405 -37.10613,46.73522 -1.61608,37.05148 21.21011,43.7129 21.21011,43.7129" />
    <path
       style="fill:none;stroke:#e5dfd8;stroke-width:23;stroke-linecap:round;stroke-linejoin:round;"
       d="m 276.5,96.5 c 0,0 22.70907,-1.324591 35,2.5 38.47539,11.97246 75.11712,49.79258 75.5,112.5 0.38288,27.20742 -0.5,158 -0.5,158 l -62,0.5 c 0,0 -0.95747,-15.36595 -1,-29.5 -0.0666,-22.13575 -16.9963,-42.94821 -45.5,-43 -25.29791,-0.046 -40.89411,23.56927 -41.5,43 -0.3949,12.6643 -1,29 -1,29 h -51 v -72" />
    <circle
       style="fill:#e5dfd8;fill-opacity:1;stroke:none;"
       cx="183"
       cy="167.5"
       r="12" />
  </g>

  <!-- Company Name -->
  <text x="600" y="450" font-family="Inter, sans-serif" font-size="72" font-weight="800" fill="#e5dfd8" text-anchor="middle">
    新鐌
  </text>

  <!-- Tagline -->
  <text x="600" y="520" font-family="Inter, sans-serif" font-size="32" font-weight="400" fill="#e5dfd8" text-anchor="middle" opacity="0.9">
    醫療設備解決方案
  </text>

  <!-- Accent line -->
  <rect x="460" y="540" width="280" height="4" fill="#2a9d8f" rx="2"/>
</svg>
